PathFileType	4	(X/Y/Z)	54_1_47_p1_0-441.trc
DataRate	CameraRate	NumFrames	NumMarkers	Units	OrigDataRate	OrigDataStartFrame	OrigNumFrames
44.0	44.0	7	27	m	44.0	0	442
Frame#	Time	RHip			RKnee			RAnkle			RBigToe			RSmallToe			RHeel			LHip			LKnee			LAnkle			LBigToe			LSmallToe			LHeel			Neck			Head			Nose			RShoulder			RElbow			RWrist			RThumb			RIndex			RPinky			LShoulder			LElbow			LWrist			LThumb			LIndex			LPinky			
		X1	Y1	Z1	X2	Y2	Z2	X3	Y3	Z3	X4	Y4	Z4	X5	Y5	Z5	X6	Y6	Z6	X7	Y7	Z7	X8	Y8	Z8	X9	Y9	Z9	X10	Y10	Z10	X11	Y11	Z11	X12	Y12	Z12	X13	Y13	Z13	X14	Y14	Z14	X15	Y15	Z15	X16	Y16	Z16	X17	Y17	Z17	X18	Y18	Z18	X19	Y19	Z19	X20	Y20	Z20	X21	Y21	Z21	X22	Y22	Z22	X23	Y23	Z23	X24	Y24	Z24	X25	Y25	Z25	X26	Y26	Z26	X27	Y27	Z27	
0	0.0	0.29994852932872434	0.4929328554684603	0.961078350521292	0.2983999742905987	0.5616625236060807	1.4713488613359513	0.28819801304806747	0.5579432352701282	1.9108291240036601	0.21494636568581837	0.35194821148114225	1.940607542435358	0.2792533765629222	0.40564430581612465	1.976593108650311	0.2668102896949937	0.6444356886161131	2.002691292276905	0.07190588344267557	0.5449699010867621	0.9699467798870346	0.08384896314587437	0.5649919421293087	1.4567399411844082	0.061341624978380464	0.5640151390995656	1.8854365847651995	0.06721209604481061	0.40591519734437326	1.9650261603375871	0.01173056960521327	0.45102838562853165	1.980103255367149	0.07175731723185054	0.6096359291553771	1.9403574670860362	0.21115326715742444	0.49868297544667395	0.41206059223352753	0.21388476161636566	0.43051161459542037	0.1567365532343698	0.20852981641824994	0.3661447009586235	0.3002610665403308	0.37663672893329625	0.4851075386063556	0.509846639435216	0.4065618755543217	0.4936726777395261	0.7915688379373508	0.3984821189710842	0.39221712379844464	1.0398668054019777	0.32813212961553245	0.33652224158668864	1.1512878201543888	0.3568702771910393	0.33252018438850156	1.1653033454398083	0.39163574901995946	0.3735280514964433	1.1816771599850133	0.04186736294230946	0.555507611686246	0.48214183390908344	-0.01896005300373558	0.5432426430120659	0.7704902339397207	-0.01701371589476848	0.4483521447226557	1.0335689495748033	0.038057701225070704	0.3929339766115313	1.1204828587718123	-0.0016420071363111525	0.4090002270233961	1.1408766414984997	-0.033355068284839674	0.3976731867114988	1.1328929848270122
1	0.022727272727272728	0.30332342385910005	0.47962458169693656	0.9525180914938667	0.29438707383304963	0.559370737144569	1.4702735567984557	0.28886492741213793	0.56056172762633	1.9127939873344633	0.21490491112167642	0.35180324307315375	1.9405719717821313	0.2843465475790525	0.4087430323118872	1.9788507362066206	0.2625390446682232	0.6408966578603356	2.000324228357093	0.07299430921067748	0.5211116921991744	0.958487115504537	0.08376100257074527	0.5649422602864256	1.4567689129500858	0.06128537282331387	0.5639356432734294	1.8852945320309966	0.07057977760224103	0.3913319788160132	1.959445990327471	0.010431767634683654	0.45129679760164454	1.9847910399851663	0.07498466124146266	0.6216642326192565	1.942947948491999	0.21114928383771728	0.498736141201656	0.41207023755230204	0.21708997875452626	0.4187650294161745	0.1562373267796279	0.2084803298654967	0.36600360030699247	0.3002709081050176	0.3767317576810033	0.48449410002690074	0.5132142627424893	0.40922512119489673	0.47990680943760416	0.7880458589397379	0.3945908221360956	0.3829828129035859	1.0365697039280322	0.3320487395827387	0.3379363138957452	1.1517770857553797	0.35679851768541093	0.33188643788187283	1.1648682847509708	0.3892457638991201	0.3866312065168201	1.1842098261245342	0.041922175163123805	0.5554981805600626	0.48215672111420643	-0.01391610759711725	0.529649821424901	0.7670143794155148	-0.0123759112582637	0.43621204210924736	1.0292901161715413	0.038815252729119815	0.3926365219540508	1.1171662178414057	-0.0015647260653855468	0.4094057167902292	1.1408951576980044	-0.0354830796067604	0.38622013485870504	1.128405849828879
2	0.045454545454545456	0.30326634349247555	0.47966604352596426	0.952482980588204	0.29423789479924795	0.5592077216668482	1.4702984232532041	0.2888444085878722	0.5601222854012092	1.9126696138627348	0.2148619887538167	0.35162458169299954	1.940593838676397	0.2843598310388768	0.40847229293321535	1.97871659592272	0.26247622816981875	0.6401386490275085	1.9999077543065102	0.07285552539838257	0.5208406285950321	0.9584602981624757	0.08274385107349302	0.5652143162401347	1.461215768091067	0.06134411411858938	0.5640612400253117	1.885421351569635	0.07134485341154441	0.39175418959665115	1.9644799014847365	0.018355441691729157	0.4286130603496005	1.969774958217576	0.07493033023456604	0.6211464221790116	1.9429650313059008	0.21118308991610182	0.4988174792410611	0.4120785903682649	0.21710974219189313	0.4187730825881192	0.15627577199300333	0.20851692817450784	0.36605453488999723	0.3002680358139703	0.3767189578654989	0.4844349642999273	0.5132152144267241	0.4091276937163892	0.4796606892097994	0.7879205711244143	0.3983835007814888	0.39227745648381046	1.039798008732434	0.32415773132961645	0.3248099782166343	1.1507435942674595	0.3523146025308495	0.32183313140388675	1.1608719288368672	0.38627898908998703	0.3998700280125723	1.1899108940178356	0.046107887702690135	0.5586147148741982	0.4825855545582531	-0.00030540180810900854	0.5066215082144484	0.7576168227404222	-0.011987497690076489	0.43607616850072356	1.0290818602383258	0.04659400125459086	0.38965704659570044	1.1160264101581865	0.007686667142271575	0.399406766509384	1.136552063140809	-0.03105299236066266	0.3744710099888091	1.1233158935285257
3	0.06818181818181818	0.3004115015686255	0.4939740930794003	0.9532237063568437	0.2942406496638525	0.5591214952225528	1.4702872919932124	0.2888569613908842	0.55977851474199	1.912787305309393	0.21236562816965754	0.3435822010055031	1.9382327208228047	0.28889592742784176	0.3928353332245895	1.9629021093296404	0.26661524376756734	0.6427403028675708	2.0017239156200723	0.06791408614248817	0.5335863398860468	0.9579555785662526	0.08269829456724169	0.5652604062179711	1.4613644411883007	0.06138293391822991	0.5640657543027481	1.8854648772909612	0.07124846568555497	0.3917479435160467	1.9644576430844316	0.016673837843683134	0.4309841620485711	1.9709075659774757	0.07670822140458615	0.5931750665585633	1.9303676152700022	0.2112007551631607	0.4988358293959229	0.4120973268705968	0.21710387294083036	0.4186665936494577	0.15626010654108383	0.2085178647626535	0.36613615310045927	0.3003044134713558	0.3765346505956329	0.48517098100817607	0.5098150122474249	0.40938310076586737	0.47826838217372963	0.7913663128126568	0.3984005762304513	0.3922372217391715	1.039986913148408	0.3242049858018408	0.32487823768377744	1.1507245067718754	0.34826694122503987	0.31978658089428086	1.1600947036556526	0.3861826057140462	0.3997565128026658	1.1897798942011608	0.04609138743986925	0.5586362178875095	0.48256569478656114	-0.0005142402286923142	0.5060231018950725	0.7534316556518393	-0.008184089786611521	0.43823203594912147	1.0295994701253968	0.050948117967157765	0.37726777772125	1.1112662393340937	0.01288097953784088	0.3875659831032375	1.1316430873833567	-0.02854315395685194	0.38647685734514975	1.123692753668908
4	0.09090909090909091	0.3038768302324691	0.48051974470523456	0.9568737372709774	0.29845159594290344	0.5615593989316733	1.4712330250570478	0.28878847430093085	0.5600166776321961	1.9127245348872488	0.21177790463160392	0.34040302738969525	1.9377132829557042	0.2877576460013368	0.39298123674440766	1.967900098963099	0.26642529771608187	0.6448332717207609	1.9988579800185888	0.07630989808120985	0.5323186126578048	0.9622533645308031	0.08368206240283328	0.5649200499991076	1.4567837029346848	0.06131264985431287	0.5638052177874606	1.8852336374381675	0.07065072599908108	0.3909816368884389	1.959228996026081	0.016335507421630157	0.42801513127146296	1.9686442548051166	0.07491125029805092	0.620236051968604	1.942818317219037	0.21116509836798664	0.49881856757197623	0.41208946345647496	0.2170928973470181	0.41865875552299237	0.15626568409766423	0.20852247044626582	0.36607521922167763	0.3002771120437905	0.3765035456745121	0.48509370413724845	0.5097908419602852	0.40924370687751654	0.47973037312613154	0.7880012857656106	0.3946106901100592	0.38281267414853254	1.0366132523252682	0.3240094333353796	0.32495129583283544	1.1509048927698593	0.34810349538952795	0.31966422837658987	1.1601216975812605	0.38907631714737245	0.3863988863430538	1.1839656639864393	0.04607050526130129	0.5585378772961076	0.48257320681944477	0.0032965675490200714	0.5084025503674974	0.7539574113855007	-0.007944337833287655	0.4397890103056796	1.02642373780183	0.053918744877114115	0.3789993257417628	1.115126512511405	0.017016789899537064	0.3892904959098416	1.1321389958790655	-0.028393674328657612	0.3866005283980277	1.1235916251688076
5	0.11363636363636363	0.30119845105780624	0.49360785624106573	0.9614655797865209	0.29843605808976964	0.5615249368136659	1.471320246490594	0.2888380108785674	0.5600497033685004	1.9128477304155436	0.21132810455684303	0.3419381027235677	1.9339956754963803	0.2887591540237887	0.3923232637092856	1.9629411171798732	0.26677588184408646	0.6432928820664179	2.002131992681311	0.0803507612564856	0.5336405830194205	0.9664300235758316	0.08210944844815164	0.5641371510286309	1.4556791927805497	0.06144732936886617	0.5639980645146163	1.8854056433093516	0.07055740000939378	0.3909667881363843	1.959125997774196	0.017617614320508585	0.42745663289581914	1.96378820806609	0.08009694779177153	0.6044901269516112	1.9330707983561415	0.21125881322569384	0.4983551315626965	0.4152456424728365	0.21708622435746144	0.4185915995682383	0.15625244320472606	0.208582072885889	0.36638230513458386	0.29751178495246344	0.37235405996581583	0.47530965506687317	0.5081976835519271	0.40939923568438813	0.478675595456813	0.7915108267282156	0.39449761464406025	0.38285141903231623	1.0366398097433103	0.3236243660445132	0.32478225385168324	1.1512420710414908	0.3478365618360434	0.31929741382850896	1.160054642378379	0.3858279412294567	0.39967883717998426	1.1893493313957368	0.04607860501161666	0.5585125240323612	0.48253575661749804	0.0035657759274025395	0.5081781964240261	0.7538402634297069	-0.007830899961842955	0.43913601097251	1.0261553763210463	0.05467909340560375	0.37802313898750817	1.111516797381736	0.029749098264402432	0.37603823491767907	1.1265426613564649	-0.025261644865416516	0.3977037324213717	1.1350531045688763
6	0.13636363636363635	0.30450985507712036	0.4796732228413637	0.9569283110840408	0.29844039330504346	0.5617554419554319	1.4715284470029963	0.2890693942026881	0.558266184167419	1.9163614180639816	0.2116304760263815	0.33995146110524777	1.9376313027047027	0.2887152331601397	0.392115508063214	1.962951459358148	0.2667319627208258	0.6435750756644102	2.0022881005131192	0.08040677456109253	0.5337883571194171	0.9663084646659342	0.08367343629803131	0.5650540388976082	1.456900617020793	0.06143500821604522	0.5639628809332838	1.8854339197404617	0.070609832613158	0.3909940528967171	1.9591123701566413	0.01760115576610757	0.4273997458676509	1.9637783927668218	0.08007194111519773	0.604490012226556	1.9330827651029696	0.21125366729783693	0.49824338340583185	0.4152150853666761	0.21704949410588548	0.4186240866825315	0.15618095950041241	0.20861967333305392	0.3663933034170837	0.2974920167686076	0.37646021532776547	0.48518302962950943	0.5097738663078533	0.4094692003289606	0.4787465721943535	0.7916701029427207	0.39456868011131957	0.3835277411132787	1.0442615205862849	0.3204451124105681	0.3380611551772521	1.1567091603858946	0.34761070011273765	0.3198514661172841	1.1605033231283912	0.38575717681602156	0.39997498220565925	1.1895837638379891	0.046072355146182284	0.5583999534536889	0.4824909467446244	0.0037202223932784077	0.5085311384681975	0.7536632928154244	-0.00826379423162548	0.43819265702905325	1.0216262656905903	0.054498004082102924	0.3779916936428237	1.1115994814742234	0.030652450326358098	0.36584459714706824	1.1224925725650445	-0.027346661128584946	0.3859879446884374	1.1231639955332156
